<svg width="1200" height="800" viewBox="0 0 1200 800" fill="none" xmlns="http://www.w3.org/2000/svg">
  <defs>
    <linearGradient id="bg" x1="0" y1="0" x2="0" y2="1">
      <stop offset="0%" stop-color="#f5f1e3" />
      <stop offset="100%" stop-color="#ebe3cf" />
    </linearGradient>
    <linearGradient id="screen" x1="0" y1="0" x2="1" y2="1">
      <stop offset="0%" stop-color="#314427" />
      <stop offset="100%" stop-color="#4d6340" />
    </linearGradient>
    <linearGradient id="chart" x1="0" y1="0" x2="0" y2="1">
      <stop offset="0%" stop-color="#cddf91" />
      <stop offset="100%" stop-color="#7b8f42" />
    </linearGradient>
    <linearGradient id="chart2" x1="0" y1="0" x2="0" y2="1">
      <stop offset="0%" stop-color="#f8e8c0" />
      <stop offset="100%" stop-color="#d1b277" />
    </linearGradient>
    <filter id="shadow" x="-20%" y="-20%" width="140%" height="160%" color-interpolation-filters="sRGB">
      <feDropShadow dx="0" dy="25" stdDeviation="35" flood-color="#1d2a17" flood-opacity="0.18" />
    </filter>
  </defs>
  <rect width="1200" height="800" fill="url(#bg)" rx="40"/>
  <g filter="url(#shadow)">
    <rect x="120" y="120" width="960" height="520" rx="30" fill="white"/>
    <rect x="150" y="150" width="900" height="460" rx="24" fill="url(#screen)"/>
    <rect x="200" y="200" width="220" height="150" rx="18" fill="#f7f0dd" opacity="0.92"/>
    <rect x="200" y="380" width="220" height="140" rx="18" fill="#f7f0dd" opacity="0.92"/>
    <rect x="450" y="200" width="460" height="320" rx="22" fill="#2a391f" opacity="0.45"/>
    <rect x="450" y="200" width="460" height="320" rx="22" fill="rgba(255,255,255,0.04)" stroke="rgba(255,255,255,0.08)"/>
    <rect x="450" y="540" width="460" height="80" rx="18" fill="#f7f0dd" opacity="0.9"/>
  </g>
  <!-- Monitor Stand -->
  <rect x="520" y="660" width="160" height="40" rx="12" fill="#dee2c5"/>
  <rect x="450" y="700" width="300" height="30" rx="15" fill="#c7cbb1"/>
  
  <!-- KPI chips -->
  <g font-family="'Inter', 'Segoe UI', sans-serif" font-weight="600">
    <rect x="215" y="215" width="190" height="40" rx="12" fill="#2f3e1e" opacity="0.08"/>
    <text x="230" y="242" font-size="16" fill="#2f3e1e">Invoices</text>
    <text x="230" y="268" font-size="28" fill="#2f3e1e" font-weight="700">$5.78K</text>

    <rect x="215" y="395" width="190" height="40" rx="12" fill="#2f3e1e" opacity="0.08"/>
    <text x="230" y="422" font-size="16" fill="#2f3e1e">Net Profit</text>
    <text x="230" y="448" font-size="28" fill="#2f3e1e" font-weight="700">18.5%</text>
  </g>

  <!-- Bar chart -->
  <g transform="translate(480,240)">
    <line x1="0" y1="220" x2="400" y2="220" stroke="rgba(255,255,255,0.25)" stroke-width="2" />
    <line x1="0" y1="150" x2="400" y2="150" stroke="rgba(255,255,255,0.18)" stroke-width="1.5" />
    <line x1="0" y1="80" x2="400" y2="80" stroke="rgba(255,255,255,0.12)" stroke-width="1.5" />
    <g fill="url(#chart)">
      <rect x="10" y="140" width="24" height="80" rx="6"/>
      <rect x="60" y="100" width="24" height="120" rx="6"/>
      <rect x="110" y="70" width="24" height="150" rx="6"/>
      <rect x="160" y="120" width="24" height="100" rx="6"/>
      <rect x="210" y="40" width="24" height="180" rx="6"/>
      <rect x="260" y="90" width="24" height="130" rx="6"/>
      <rect x="310" y="60" width="24" height="160" rx="6"/>
      <rect x="360" y="110" width="24" height="110" rx="6"/>
    </g>
    <g fill="url(#chart2)" opacity="0.9">
      <rect x="36" y="160" width="24" height="60" rx="6"/>
      <rect x="86" y="120" width="24" height="100" rx="6"/>
      <rect x="136" y="110" width="24" height="110" rx="6"/>
      <rect x="186" y="150" width="24" height="70" rx="6"/>
      <rect x="236" y="100" width="24" height="120" rx="6"/>
      <rect x="286" y="140" width="24" height="80" rx="6"/>
      <rect x="336" y="130" width="24" height="90" rx="6"/>
    </g>
  </g>

  <!-- Line chart -->
  <polyline points="480,360 520,330 560,340 600,305 640,320 680,295 720,310 760,280 800,300 840,270"
    fill="none" stroke="#d8c38f" stroke-width="6" stroke-linecap="round" stroke-linejoin="round" opacity="0.9" />
  <g fill="#d8c38f">
    <circle cx="480" cy="360" r="6"/>
    <circle cx="560" cy="340" r="6"/>
    <circle cx="640" cy="320" r="6"/>
    <circle cx="720" cy="310" r="6"/>
    <circle cx="800" cy="300" r="6"/>
  </g>

  <!-- Pie chart -->
  <g transform="translate(230,560)">
    <circle cx="0" cy="0" r="72" fill="#f8f4e5"/>
    <path d="M0,-72 A72,72 0 0 1 62,28 L0,0Z" fill="#4e633c"/>
    <path d="M62,28 A72,72 0 0 1 -45,56 L0,0Z" fill="#cddf91"/>
    <path d="M-45,56 A72,72 0 0 1 0,-72 L0,0Z" fill="#d8c38f"/>
    <circle cx="0" cy="0" r="32" fill="white"/>
    <text x="0" y="6" text-anchor="middle" font-size="20" font-family="'Inter', 'Segoe UI', sans-serif" fill="#2f3e1e" font-weight="600">68%</text>
  </g>

</svg>
