<svg width="1200" height="800" viewBox="0 0 1200 800" fill="none" xmlns="http://www.w3.org/2000/svg">
  <defs>
    <linearGradient id="bg" x1="0" y1="0" x2="0" y2="1">
      <stop offset="0%" stop-color="#f5f1e3" />
      <stop offset="100%" stop-color="#ebe3cf" />
    </linearGradient>
    <linearGradient id="screen" x1="0" y1="0" x2="1" y2="1">
      <stop offset="0%" stop-color="#314427" />
      <stop offset="100%" stop-color="#4d6340" />
    </linearGradient>
    <linearGradient id="chart" x1="0" y1="0" x2="0" y2="1">
      <stop offset="0%" stop-color="#cddf91" />
      <stop offset="100%" stop-color="#7b8f42" />
    </linearGradient>
    <linearGradient id="chart2" x1="0" y1="0" x2="0" y2="1">
      <stop offset="0%" stop-color="#f8e8c0" />
      <stop offset="100%" stop-color="#d1b277" />
    </linearGradient>
    <filter id="shadow" x="-20%" y="-20%" width="140%" height="160%" color-interpolation-filters="sRGB">
      <feDropShadow dx="0" dy="25" stdDeviation="35" flood-color="#1d2a17" flood-opacity="0.18" />
    </filter>
    <radialGradient id="glow" cx="0.5" cy="0.1" r="1">
      <stop offset="0%" stop-color="#dbe7bf" stop-opacity="0.7"/>
      <stop offset="70%" stop-color="#f5f1e3" stop-opacity="0"/>
    </radialGradient>
    <linearGradient id="chip" x1="0" y1="0" x2="1" y2="1">
      <stop offset="0%" stop-color="#4a5d23"/>
      <stop offset="100%" stop-color="#7c8c4f"/>
    </linearGradient>
    <filter id="glass" x="-5%" y="-5%" width="110%" height="110%">
      <feGaussianBlur stdDeviation="12" result="blur"/>
      <feColorMatrix type="matrix" values="0 0 0 0 0.286  0 0 0 0 0.356  0 0 0 0 0.208  0 0 0 0.28 0"/>
    </filter>
    <linearGradient id="grid" x1="0" y1="0" x2="0" y2="1">
      <stop offset="0%" stop-color="rgba(255,255,255,0.2)"/>
      <stop offset="100%" stop-color="rgba(255,255,255,0.05)"/>
    </linearGradient>
    <filter id="noise">
      <feTurbulence type="fractalNoise" baseFrequency="0.9" numOctaves="2" result="n"/>
      <feColorMatrix type="matrix" values="0 0 0 0 0  0 0 0 0 0  0 0 0 0 0  0 0 0 0.08 0" result="n2"/>
      <feBlend in="SourceGraphic" in2="n2" mode="screen"/>
    </filter>
    <linearGradient id="bezel" x1="0" y1="0" x2="0" y2="1">
      <stop offset="0%" stop-color="#fcfbf7"/>
      <stop offset="45%" stop-color="#f2eee1"/>
      <stop offset="100%" stop-color="#d4c9b5"/>
    </linearGradient>
  </defs>
  <rect width="1200" height="800" fill="url(#bg)" rx="40"/>
  <circle cx="920" cy="90" r="360" fill="url(#glow)" opacity="0.7"/>
  <circle cx="250" cy="720" r="280" fill="url(#glow)" opacity="0.35"/>
  <path d="M80 580 C200 500 320 650 460 560 C600 470 740 630 900 520 C1020 440 1110 530 1170 480" stroke="#d8c38f33" stroke-width="4" fill="none" stroke-linecap="round"/>
  <path d="M160 150 C260 210 330 60 440 140" stroke="#4a5d2344" stroke-width="6" fill="none" stroke-linecap="round"/>
  <circle cx="1080" cy="540" r="120" fill="url(#glow)" opacity="0.45"/>
  <circle cx="150" cy="300" r="110" fill="url(#glow)" opacity="0.25"/>
  <g filter="url(#shadow)">
    <rect x="110" y="108" width="980" height="560" rx="38" fill="url(#bezel)" opacity="0.85"/>
    <rect x="120" y="120" width="960" height="520" rx="34" fill="white"/>
    <rect x="150" y="150" width="900" height="460" rx="24" fill="url(#screen)"/>
    <rect x="150" y="150" width="900" height="460" rx="24" stroke="rgba(255,255,255,0.2)" stroke-width="2"/>
    <rect x="150" y="150" width="900" height="60" rx="24" fill="rgba(255,255,255,0.08)"/>
    <circle cx="190" cy="180" r="8" fill="#d88449"/>
    <circle cx="215" cy="180" r="8" fill="#d8c38f"/>
    <circle cx="240" cy="180" r="8" fill="#7b8f42"/>
    <rect x="200" y="200" width="220" height="150" rx="24" fill="#f7f0dd" opacity="0.92"/>
    <rect x="200" y="380" width="220" height="140" rx="24" fill="#f7f0dd" opacity="0.92"/>
    <rect x="450" y="200" width="460" height="320" rx="22" fill="#2a391f" opacity="0.45"/>
    <g stroke="url(#grid)" stroke-width="1">
      <line x1="470" y1="230" x2="870" y2="230"/>
      <line x1="470" y1="260" x2="870" y2="260"/>
      <line x1="470" y1="290" x2="870" y2="290"/>
      <line x1="470" y1="320" x2="870" y2="320"/>
      <line x1="470" y1="350" x2="870" y2="350"/>
      <line x1="470" y1="380" x2="870" y2="380"/>
      <line x1="470" y1="410" x2="870" y2="410"/>
      <line x1="470" y1="440" x2="870" y2="440"/>
    </g>
    <rect x="450" y="200" width="460" height="320" rx="22" fill="rgba(255,255,255,0.04)" stroke="rgba(255,255,255,0.08)"/>
    <rect x="450" y="540" width="460" height="80" rx="18" fill="#f7f0dd" opacity="0.9"/>
  </g>
  <!-- Monitor Stand -->
  <rect x="520" y="660" width="160" height="40" rx="20" fill="#dee2c5"/>
  <rect x="450" y="700" width="300" height="30" rx="15" fill="#c7cbb1"/>
  <ellipse cx="600" cy="730" rx="220" ry="20" fill="#b2b69c" opacity="0.25"/>
  <rect x="470" y="540" width="260" height="10" rx="5" fill="white" opacity="0.15"/>
  
  <!-- KPI chips -->
  <g font-family="'Inter', 'Segoe UI', sans-serif" font-weight="600">
    <rect x="215" y="215" width="190" height="95" rx="18" fill="white" opacity="0.95" stroke="#e4d9c3"/>
    <text x="235" y="250" font-size="16" fill="#7b8f42">Invoices</text>
    <text x="235" y="280" font-size="32" fill="#2f3e1e" font-weight="700">$5.78K</text>
    <text x="235" y="305" font-size="14" fill="#a08f68">+12% vs last month</text>

    <rect x="215" y="395" width="190" height="95" rx="18" fill="white" opacity="0.95" stroke="#e4d9c3"/>
    <text x="235" y="430" font-size="16" fill="#7b8f42">Net Profit</text>
    <text x="235" y="460" font-size="32" fill="#2f3e1e" font-weight="700">18.5%</text>
    <text x="235" y="485" font-size="14" fill="#a08f68">Stable performance</text>
  </g>

  <!-- Bar chart -->
  <g transform="translate(480,240)" filter="url(#noise)">
    <line x1="0" y1="220" x2="400" y2="220" stroke="rgba(255,255,255,0.25)" stroke-width="2" />
    <line x1="0" y1="150" x2="400" y2="150" stroke="rgba(255,255,255,0.18)" stroke-width="1.5" />
    <line x1="0" y1="80" x2="400" y2="80" stroke="rgba(255,255,255,0.12)" stroke-width="1.5" />
    <g fill="url(#chart)">
      <rect x="10" y="140" width="24" height="80" rx="6"/>
      <rect x="60" y="100" width="24" height="120" rx="6"/>
      <rect x="110" y="70" width="24" height="150" rx="6"/>
      <rect x="160" y="120" width="24" height="100" rx="6"/>
      <rect x="210" y="40" width="24" height="180" rx="6"/>
      <rect x="260" y="90" width="24" height="130" rx="6"/>
      <rect x="310" y="60" width="24" height="160" rx="6"/>
      <rect x="360" y="110" width="24" height="110" rx="6"/>
    </g>
    <g fill="url(#chart2)" opacity="0.9">
      <rect x="36" y="160" width="24" height="60" rx="6"/>
      <rect x="86" y="120" width="24" height="100" rx="6"/>
      <rect x="136" y="110" width="24" height="110" rx="6"/>
      <rect x="186" y="150" width="24" height="70" rx="6"/>
      <rect x="236" y="100" width="24" height="120" rx="6"/>
      <rect x="286" y="140" width="24" height="80" rx="6"/>
      <rect x="336" y="130" width="24" height="90" rx="6"/>
    </g>
  </g>

  <!-- Line chart -->
  <polyline points="480,360 520,330 560,340 600,305 640,320 680,295 720,310 760,280 800,300 840,270"
    fill="none" stroke="#f1d9a5" stroke-width="7" stroke-linecap="round" stroke-linejoin="round" opacity="0.95" />
  <g fill="#d8c38f">
    <circle cx="480" cy="360" r="6"/>
    <circle cx="560" cy="340" r="6"/>
    <circle cx="640" cy="320" r="6"/>
    <circle cx="720" cy="310" r="6"/>
    <circle cx="800" cy="300" r="6"/>
  </g>

  <!-- Pie chart -->
  <g transform="translate(230,560)">
    <circle cx="0" cy="0" r="72" fill="#f8f4e5"/>
    <path d="M0,-72 A72,72 0 0 1 62,28 L0,0Z" fill="#4e633c"/>
    <path d="M62,28 A72,72 0 0 1 -45,56 L0,0Z" fill="#cddf91"/>
    <path d="M-45,56 A72,72 0 0 1 0,-72 L0,0Z" fill="#d8c38f"/>
    <circle cx="0" cy="0" r="32" fill="white"/>
    <text x="0" y="6" text-anchor="middle" font-size="20" font-family="'Inter', 'Segoe UI', sans-serif" fill="#2f3e1e" font-weight="600">68%</text>
  </g>
  <!-- Floating chips -->
  <g>
    <rect x="860" y="170" width="150" height="70" rx="18" fill="url(#chip)" opacity="0.18" />
    <rect x="870" y="180" width="130" height="55" rx="14" fill="url(#chip)" opacity="0.9" />
    <text x="885" y="210" font-size="16" font-family="'Inter', 'Segoe UI', sans-serif" fill="white" font-weight="600">New Leads</text>
    <text x="885" y="232" font-size="22" font-family="'Inter', 'Segoe UI', sans-serif" fill="#f4f1d8" font-weight="700">245</text>
    <circle cx="985" cy="208" r="6" fill="#f8e8c0" opacity="0.8"/>
  </g>
  <g opacity="0.9">
    <rect x="820" y="430" width="160" height="110" rx="20" fill="#fdfaf2" stroke="#e4d9c3"/>
    <text x="840" y="460" font-size="16" font-family="'Inter', 'Segoe UI', sans-serif" fill="#7b8f42">Cash Flow</text>
    <text x="840" y="490" font-size="30" font-family="'Inter', 'Segoe UI', sans-serif" fill="#2f3e1e" font-weight="700">$256K</text>
    <text x="840" y="515" font-size="14" font-family="'Inter', 'Segoe UI', sans-serif" fill="#a08f68">+4.3% this week</text>
    <rect x="840" y="530" width="100" height="6" rx="3" fill="#e7dcc5"/>
    <rect x="840" y="530" width="72" height="6" rx="3" fill="#7b8f42"/>
  </g>
  <!-- Ambient reflections -->
  <ellipse cx="1020" cy="210" rx="90" ry="35" fill="#ffffff" opacity="0.08" filter="url(#glass)"/>
  <ellipse cx="320" cy="640" rx="120" ry="48" fill="#ffffff" opacity="0.05" filter="url(#glass)"/>
  <path d="M190 600 C210 610 240 600 260 610" stroke="#cddf91" stroke-width="4" stroke-linecap="round" opacity="0.6"/>
  <path d="M940 610 C960 600 990 618 1010 602" stroke="#cddf91" stroke-width="4" stroke-linecap="round" opacity="0.4"/>
  <circle cx="1020" cy="610" r="4" fill="#cddf91" opacity="0.7"/>
  <circle cx="180" cy="595" r="4" fill="#cddf91" opacity="0.7"/>
</svg>
